<svg width="576" height="576" viewBox="0 0 576 576" fill="none" xmlns="http://www.w3.org/2000/svg">
<rect width="576" height="576" rx="288" fill="#5361E0"/>
<path d="M143.23 154.23C141.218 156.506 141.433 159.982 143.709 161.993C145.985 164.005 149.461 163.79 151.472 161.514L143.23 154.23ZM151.472 161.514C185.161 123.393 233.439 99.8999 288.518 99.8999V88.8999C230.174 88.8999 178.931 113.831 143.23 154.23L151.472 161.514ZM288.518 99.8999C343.681 99.8999 393.156 124.036 426.851 162.264L435.103 154.991C399.4 114.484 346.958 88.8999 288.518 88.8999V99.8999Z" fill="white"/>
<path d="M164.483 192.2C165.707 194.98 168.953 196.242 171.733 195.018C174.513 193.795 175.775 190.549 174.551 187.769L164.483 192.2ZM111.383 151.448L113.235 156.627L111.383 151.448ZM91.9426 305.122L92.6392 299.666L91.9426 305.122ZM178.345 294.732L183.19 297.336C184.436 295.017 183.865 292.139 181.826 290.473C179.787 288.807 176.853 288.82 174.829 290.503L178.345 294.732ZM200.658 331.485C203.69 331.3 205.997 328.691 205.811 325.66C205.626 322.628 203.017 320.32 199.985 320.506L200.658 331.485ZM174.551 187.769C171.399 180.607 164.436 167.387 153.865 157.333C143.167 147.158 128.035 139.654 109.532 146.269L113.235 156.627C126.438 151.907 137.351 156.808 146.284 165.303C155.342 173.919 161.594 185.635 164.483 192.2L174.551 187.769ZM109.532 146.269C87.9973 153.967 70.0892 173.128 57.6603 194.766C45.1982 216.462 37.7002 241.578 37.7002 262.335H48.7002C48.7002 243.894 55.4774 220.651 67.1987 200.245C78.9532 179.781 95.1366 163.097 113.235 156.627L109.532 146.269ZM37.7002 262.335C37.7002 275.761 45.6775 287.17 55.8167 295.31C66.0034 303.488 79.1346 309.031 91.246 310.578L92.6392 299.666C82.5864 298.383 71.3464 293.671 62.703 286.732C54.012 279.755 48.7002 271.185 48.7002 262.335H37.7002ZM91.246 310.578C139.451 316.732 165.276 312.754 181.862 298.961L174.829 290.503C162.112 301.079 140.604 305.79 92.6392 299.666L91.246 310.578ZM173.501 292.128C171.779 295.331 170.181 299.321 169.328 303.546C168.481 307.737 168.296 312.526 169.824 317.069C171.413 321.793 174.735 325.861 180.1 328.467C185.29 330.989 192.098 332.01 200.658 331.485L199.985 320.506C192.505 320.964 187.789 319.973 184.907 318.573C182.2 317.258 180.9 315.494 180.25 313.562C179.539 311.449 179.498 308.756 180.11 305.724C180.715 302.726 181.891 299.753 183.19 297.336L173.501 292.128Z" fill="white"/>
<path d="M170.363 216.43C168.109 205.788 139.558 184.222 116.455 186.299C98.1183 187.948 69.9664 226.253 82.8329 257.139C95.6994 288.025 140.386 283.045 153.27 260.822C169.423 232.959 145.85 187.905 116.455 236.831" stroke="white" stroke-width="11" stroke-linecap="round"/>
<path d="M408.155 190.648C414.197 176.921 433.737 140.227 465.443 151.561C505.076 165.729 533.626 223.25 533.626 262.448C533.626 284.725 532.969 299.096 484.884 305.235C436.799 311.375 413.132 307.03 398.481 294.845C404.523 306.085 408.587 328.074 376.505 326.109" stroke="white" stroke-width="11" stroke-linecap="round" stroke-linejoin="round"/>
<path d="M406.559 216.477C408.813 205.835 437.363 184.269 460.466 186.347C478.803 187.996 506.955 226.3 494.088 257.186C481.222 288.072 436.535 283.092 423.651 260.869C407.498 233.006 431.071 187.952 460.466 236.879" stroke="white" stroke-width="11" stroke-linecap="round"/>
<path d="M219.326 285.382C204.816 306.113 195.999 333.445 195.999 363.399C195.999 428.188 237.248 480.709 288.13 480.709C339.013 480.709 380.262 428.188 380.262 363.399C380.262 333.445 371.445 306.113 356.935 285.382" stroke="white" stroke-width="11" stroke-linecap="round"/>
<path d="M199.044 364.863C196.514 363.181 193.101 363.868 191.419 366.398C189.737 368.927 190.424 372.341 192.954 374.023L199.044 364.863ZM195.999 369.443C192.954 374.023 192.956 374.025 192.958 374.026C192.959 374.027 192.962 374.028 192.964 374.03C192.967 374.032 192.972 374.035 192.976 374.038C192.986 374.044 192.997 374.052 193.01 374.06C193.036 374.077 193.069 374.099 193.109 374.125C193.19 374.176 193.299 374.246 193.438 374.332C193.714 374.503 194.105 374.74 194.613 375.034C195.629 375.62 197.109 376.431 199.06 377.39C202.963 379.308 208.749 381.817 216.47 384.311C231.92 389.301 255.077 394.211 286.348 394.211V383.211C256.25 383.211 234.232 378.488 219.85 373.843C212.655 371.52 207.36 369.212 203.912 367.518C202.187 366.67 200.924 365.975 200.115 365.508C199.71 365.275 199.419 365.098 199.241 364.987C199.152 364.932 199.091 364.893 199.058 364.872C199.042 364.861 199.032 364.855 199.03 364.854C199.029 364.853 199.029 364.853 199.032 364.855C199.033 364.856 199.035 364.857 199.037 364.858C199.038 364.859 199.039 364.86 199.04 364.86C199.042 364.862 199.044 364.863 195.999 369.443ZM286.348 394.211C317.616 394.211 341.635 389.302 357.922 384.338C366.063 381.857 372.268 379.365 376.477 377.468C378.582 376.52 380.188 375.721 381.288 375.147C381.838 374.86 382.262 374.629 382.558 374.464C382.706 374.382 382.822 374.316 382.907 374.267C382.949 374.243 382.983 374.223 383.009 374.208C383.023 374.2 383.034 374.194 383.043 374.188C383.047 374.186 383.051 374.183 383.055 374.181C383.057 374.18 383.059 374.179 383.06 374.178C383.062 374.177 383.064 374.176 380.262 369.443C377.46 364.71 377.462 364.709 377.463 364.708C377.464 364.708 377.465 364.707 377.466 364.707C377.468 364.706 377.469 364.705 377.469 364.705C377.47 364.704 377.47 364.705 377.467 364.706C377.461 364.709 377.448 364.717 377.427 364.729C377.384 364.754 377.31 364.796 377.205 364.855C376.995 364.972 376.659 365.155 376.199 365.395C375.28 365.874 373.864 366.581 371.959 367.439C368.149 369.156 362.382 371.48 354.715 373.816C339.388 378.487 316.449 383.211 286.348 383.211V394.211Z" fill="white"/>
<path d="M290.104 312.945L290.479 361.873" stroke="white" stroke-width="11" stroke-linecap="round"/>
<path d="M281.875 201.508C281.875 232.303 257.061 257.213 226.517 257.213C195.974 257.213 171.16 232.303 171.16 201.508C171.16 170.714 195.974 145.803 226.517 145.803C257.061 145.803 281.875 170.714 281.875 201.508Z" stroke="white" stroke-width="11"/>
<path d="M405.847 201.508C405.847 232.303 381.033 257.213 350.49 257.213C319.946 257.213 295.132 232.303 295.132 201.508C295.132 170.714 319.946 145.803 350.49 145.803C381.033 145.803 405.847 170.714 405.847 201.508Z" stroke="white" stroke-width="11"/>
<path d="M280.808 186.207H292.585M282.179 202.641H293.956" stroke="white" stroke-width="11"/>
<path d="M242.399 285.466C239.018 281.373 235.655 272.167 249.254 268.087C266.253 262.986 285.318 270.826 288.605 281.593" stroke="white" stroke-width="11" stroke-linecap="round"/>
<path d="M334.809 285.466C338.19 281.373 341.552 272.167 327.953 268.087C310.954 262.986 291.889 270.826 288.602 281.593" stroke="white" stroke-width="11" stroke-linecap="round"/>
<path d="M270.487 284.141C270.941 284.945 271.148 286.611 270.237 288.952C269.333 291.274 267.79 292.999 266.654 293.648C264.814 294.699 261.402 294.202 259.468 290.776C258.051 288.265 257.252 286.058 257.123 284.537C257.064 283.837 257.171 283.556 257.186 283.523C257.186 283.521 257.187 283.519 257.188 283.518C257.194 283.511 257.248 283.455 257.396 283.37C258.547 282.713 261.651 282.028 265.163 282.341C266.807 282.487 268.198 282.829 269.198 283.272C270.224 283.726 270.472 284.115 270.487 284.141Z" stroke="white" stroke-width="11"/>
<path d="M305.405 284.211C304.951 285.015 304.744 286.68 305.656 289.022C306.56 291.344 308.102 293.069 309.239 293.718C311.079 294.768 314.49 294.271 316.424 290.845C317.841 288.335 318.64 286.128 318.769 284.607C318.829 283.906 318.722 283.625 318.707 283.592C318.706 283.59 318.705 283.588 318.705 283.587C318.698 283.58 318.645 283.524 318.497 283.44C317.346 282.782 314.241 282.097 310.729 282.41C309.085 282.556 307.695 282.898 306.694 283.341C305.668 283.796 305.42 284.184 305.405 284.211Z" stroke="white" stroke-width="11"/>
</svg>
